HIERARCHY
ROOT HipCenter
{
    OFFSET 0.0 0.0 -0.0
    CHANNELS 6 Xposition Yposition Zposition Zrotation Xrotation Yrotation
    JOINT Spine
    {
        OFFSET 0.0 0.12094494700431824 0.0
        CHANNELS 3 Zrotation Xrotation Yrotation
        JOINT ShoulderCenter
        {
            OFFSET 0.0 0.33466991782188416 0.0
            CHANNELS 3 Zrotation Xrotation Yrotation
            JOINT LeftShoulder
            {
                OFFSET 0.1903361976146698 0.0 0.0
                CHANNELS 3 Zrotation Xrotation Yrotation
                JOINT LeftElbow
                {
                    OFFSET 0.29750776290893555 0.0 0.0
                    CHANNELS 3 Zrotation Xrotation Yrotation
                    JOINT LeftWrist
                    {
                        OFFSET 0.2960554361343384 0.0 0.0
                        CHANNELS 3 Zrotation Xrotation Yrotation
                        JOINT LeftHand
                        {
                            OFFSET 0.04406160116195679 0.0 0.0
                            CHANNELS 3 Zrotation Xrotation Yrotation
                            End Site
                            {
                                OFFSET 0.017624642699956894 0.0 0.0
                            }
                        }
                    }
                }
            }
            JOINT RightShoulder
            {
                OFFSET -0.1903361976146698 0.0 0.0
                CHANNELS 3 Zrotation Xrotation Yrotation
                JOINT RightElbow
                {
                    OFFSET -0.29750776290893555 0.0 0.0
                    CHANNELS 3 Zrotation Xrotation Yrotation
                    JOINT RightWrist
                    {
                        OFFSET -0.2960554361343384 0.0 0.0
                        CHANNELS 3 Zrotation Xrotation Yrotation
                        JOINT RightHand
                        {
                            OFFSET -0.04406160116195679 0.0 0.0
                            CHANNELS 3 Zrotation Xrotation Yrotation
                            End Site
                            {
                                OFFSET -0.017624642699956894 0.0 0.0
                            }
                        }
                    }
                }
            }
            End Site
            {
                OFFSET 0.0 0.13386796414852142 0.0
            }
        }
    }
    JOINT LeftHip
    {
        OFFSET 0.1397317349910736 0.0 0.0
        CHANNELS 3 Zrotation Xrotation Yrotation
        JOINT LeftKnee
        {
            OFFSET 0.0 -0.40643662214279175 0.0
            CHANNELS 3 Zrotation Xrotation Yrotation
            JOINT LeftAnkle
            {
                OFFSET 0.0 -0.447790265083313 0.0
                CHANNELS 3 Zrotation Xrotation Yrotation
                JOINT LeftFoot
                {
                    OFFSET 0.0 -0.10071760416030884 0.0
                    CHANNELS 3 Zrotation Xrotation Yrotation
                    End Site
                    {
                        OFFSET 0.0 0.0 0.040287040174007416
                    }
                }
            }
        }
    }
    JOINT RightHip
    {
        OFFSET -0.1397317349910736 0.0 0.0
        CHANNELS 3 Zrotation Xrotation Yrotation
        JOINT RightKnee
        {
            OFFSET 0.0 -0.40643662214279175 0.0
            CHANNELS 3 Zrotation Xrotation Yrotation
            JOINT RightAnkle
            {
                OFFSET 0.0 -0.447790265083313 0.0
                CHANNELS 3 Zrotation Xrotation Yrotation
                JOINT RightFoot
                {
                    OFFSET 0.0 -0.10071760416030884 0.0
                    CHANNELS 3 Zrotation Xrotation Yrotation
                    End Site
                    {
                        OFFSET 0.0 0.0 0.040287040174007416
                    }
                }
            }
        }
    }
}
MOTION
Frames: 5
Frame Time: 0.03333333333333333
0.45899999141693115 -0.9020000100135803 0.5320000052452087 21.80136104442086 -77.14603414061396 24.287004461594485 -0.36654605357955083 15.457819600201956 2.0919063851426296 7.384315842601309e-08 -1.0593061761626417e-06 -2.2724109967283583 102.41446366557538 4.197092152757805 -153.47237230188392 -5.350465110890457e-07 3.016827274926058e-06 84.1783505459917 -3.8525116140121345e-06 -49.30844524757972 61.94558924850632 0.0 0.0 3.180554681463516e-15 -93.95860986536015 16.66581686208285 155.60511048350173 1.4494595313508922e-06 -3.97083835158528e-06 -94.48200577141634 -179.9999943979393 -73.39384209784654 126.8112230791296 -3.1805546814635168e-15 -6.3611093629270335e-15 1.5902773407317582e-15 -179.78141903303163 -61.81988531526195 -128.98714834356144 67.01368159401666 40.64630156062597 -86.57931643612294 -99.44690609922313 64.40201962406023 47.209778382974356 2.3854160110976376e-15 1.189685681896332e-31 5.715059193254757e-15 -175.7828108988851 -47.50566407246198 120.17763644961082 -65.85458274378082 29.536239940693175 55.630127719637734 -84.66654179156059 63.122027151055555 143.38033761694058 0.0 -6.3611093629270335e-15 0.0
0.4569999873638153 -0.8960000276565552 0.5370000004768372 39.28924117619342 -83.24541701116978 38.710349390928414 -1.0304973586836161 12.467150966974117 2.144411639851817 1.2555676324232835e-09 7.349617432982434e-07 0.37868994189984745 99.24817233196417 7.972567637765564 -140.98009198235448 -3.968025788125967e-06 -1.8699056343705288e-06 97.91997281244484 -5.255414741272156e-07 -43.494039603230775 65.9290919998638 3.1805546814635168e-15 6.3611093629270335e-15 -6.3611093629270335e-15 -88.5915676711289 19.53549949862746 142.36415773934587 1.1252534263926636e-06 2.2086476019582866e-06 -103.12628638048402 -179.99999050069226 -80.54577759028875 125.5958826785001 -1.5902773407317582e-15 -6.162324695335563e-15 -8.551943452472182e-32 177.7698400371973 -52.62743635578306 -129.72104749077258 78.37650477826277 38.87987847296681 -93.97293911507221 -125.21280595915304 47.41083315751111 68.92446382041666 1.5902773407317584e-15 -3.1805546814635168e-15 3.975693351829396e-16 -178.82094852942714 -42.648222582566056 116.71549487450297 -79.06010284558388 32.799685953844666 68.59824352276678 19.738564482918072 75.84041927465209 34.739166182631784 -7.951386703658792e-16 -7.951386703658792e-16 -1.5902773407317584e-15
0.45399999618530273 -0.8809999823570251 0.5400000214576721 78.69024178968661 -85.18245588348996 76.50143958085856 -2.307463978720333 9.466183468178057 1.9095086978025086 1.2311455325339112e-07 -3.2587797609744207e-06 2.5091321478385478 95.32367082314688 11.218497742508907 -127.92644632563218 -1.8659068496469226e-06 -6.39095870910787e-06 112.42194282314792 8.875166849422102e-07 -35.12626392565779 66.21380539544187 -3.1805546814635168e-15 3.1805546814635168e-15 -6.3611093629270335e-15 -83.94795333913915 22.23658393141537 129.5486825130131 3.985582434348286e-06 -6.415961897544685e-07 -113.54456277278315 179.99998592395386 -80.64558834602074 123.54482375910608 7.951386703658792e-16 3.1805546814635168e-15 -2.2069531490250793e-32 176.11925002240665 -44.30556829595005 -129.33537875210712 88.21188300738541 37.19019752718235 -104.58376626554902 155.0158042233129 -19.89227420256373 -170.19855271376375 3.531125038440127e-31 6.3611093629270335e-15 -6.3611093629270335e-15 179.53848601854875 -37.97690136689362 115.7940108417342 -88.09627723935257 34.40358446606296 80.07590557382007 -40.19768516680109 -30.58596013251711 -100.50558809408872 0.0 0.0 0.0
0.4519999921321869 -0.8600000143051147 0.5379999876022339 118.61043410606761 -84.08790471342402 114.49646112439265 -2.332135846650647 7.992182946530732 1.5166073556620574 1.508745253389052e-07 -1.4043253768345386e-06 5.078461899068829 89.92275665433631 13.917753750238644 -112.68923507697544 -3.4186673638968773e-06 -6.05164213172017e-06 128.6911283145891 3.2716287571040078e-06 -33.90567132033173 66.56288309556662 -1.0933156717530838e-15 1.5902773407317584e-15 3.1805546814635168e-15 -81.12823505557712 24.089252274000565 113.96549651333208 -5.38377961198027e-06 -1.6048450693350225e-06 -125.02012163529781 179.99999146370698 -79.1608040786062 118.57148007032629 -3.7272125173400585e-16 0.0 0.0 174.29104687593096 -38.64733709775184 -129.6346530966232 72.07867299993306 33.83255678075834 -74.6941483476581 -110.82685357363971 -77.62976558519837 -54.99296153658906 3.1805546814635176e-15 -1.5902773407317588e-15 3.1805546814635176e-15 177.72569389376255 -35.45721794604231 115.19672791960494 -71.25429275544704 33.76077462766702 52.863944972429 104.67960978019586 -62.30595245204324 51.3104192239581 -3.1805546814635168e-15 -1.5902773407317584e-15 -4.4139062980501586e-32
0.4490000009536743 -0.8360000252723694 0.5270000100135803 147.99463060327196 -81.06440472692633 139.88131156808606 -1.7302679598236916 8.95639962519742 1.0370007463669877 -2.3594594676072712e-07 3.037723930484815e-07 8.509397244033247 86.40544597397741 14.027150888688892 -95.99804074400471 9.688840337744741e-07 1.0583304105916894e-06 137.5474238604453 1.4833588848847482e-07 -26.830364818635804 74.68456976075898 -2.1866313435061676e-15 -1.517280289954742e-32 7.951386703658792e-16 -78.85281890044647 22.657394252370054 98.99378006306779 5.532836408588024e-06 -4.188002100049854e-07 -130.33525731393703 179.99999222963163 -79.44719899684756 115.50557496527165 -7.951386703658792e-16 -3.1805546814635168e-15 -2.2069531490250793e-32 170.1549642644692 -35.8536647269068 -129.43945161111148 58.13471041515366 24.88313057840111 -44.071699933645284 -96.02696003053312 -52.71080393183881 -33.46756162449864 0.0 0.0 -3.1805546814635168e-15 173.25706419278694 -35.453706804664506 114.83650701035546 -56.380323907927895 33.51612900726692 36.18617159823697 101.69911655601895 -53.68462668779808 54.35918537223094 0.0 -6.3611093629270335e-15 0.0
